<svg width="131" height="47" viewBox="0 0 131 47" fill="none" xmlns="http://www.w3.org/2000/svg">
<g clip-path="url(#clip0_8_31)">
<path d="M67.6328 15.4169L73.8652 15.0315C74.0074 16.0064 74.2681 16.7319 74.6946 17.2533C75.3819 18.0695 76.3298 18.4776 77.5857 18.4776C78.5099 18.4776 79.2446 18.2736 79.7422 17.8428C80.2162 17.5027 80.5005 16.9586 80.5005 16.3918C80.5005 15.8477 80.2399 15.3262 79.7896 14.9861C79.3157 14.578 78.2019 14.1699 76.4483 13.8072C73.5809 13.195 71.5192 12.3789 70.3106 11.336C69.102 10.3611 68.4148 8.93273 68.4622 7.41371C68.4622 6.3708 68.794 5.32789 69.4101 4.46636C70.121 3.49147 71.0926 2.72062 72.2538 2.28986C73.5098 1.7684 75.2634 1.49634 77.4673 1.49634C80.1688 1.49634 82.2305 1.97245 83.6523 2.94734C85.0742 3.89956 85.9273 5.44125 86.188 7.54974L80.0266 7.88982C79.8607 6.98294 79.5289 6.32546 78.9839 5.89469C78.4389 5.46392 77.7279 5.25988 76.8037 5.25988C76.0454 5.25988 75.4767 5.41858 75.0975 5.71332C74.742 5.98538 74.5051 6.39347 74.5288 6.84691C74.5288 7.18699 74.7183 7.5044 75.0027 7.70844C75.3108 7.98051 76.0454 8.2299 77.2066 8.45662C80.074 9.04609 82.112 9.63556 83.3679 10.2477C84.6239 10.8598 85.5244 11.608 86.0695 12.4922C86.6382 13.3991 85.9273 14.4647 85.9036 15.5303C85.9036 16.7999 86.5197 18.0468 85.7614 19.1124C84.9794 20.2233 83.8893 21.0849 82.6096 21.6063C81.2589 22.1731 79.5526 22.4679 77.5146 22.4679C73.9126 22.4679 71.4244 21.8104 70.0262 20.4727C68.6281 19.1351 67.7987 17.4574 67.6328 15.4169ZM1.49294 22.1278V1.85909H12.4175C14.4318 1.85909 15.9958 2.01779 17.0622 2.35787C18.1049 2.67528 19.0291 3.33276 19.6453 4.21697C20.3325 5.19186 20.6643 6.32546 20.6406 7.5044C20.7116 9.49953 19.6453 11.404 17.8205 12.4015C17.1096 12.787 16.3276 13.059 15.5219 13.195C16.1143 13.3538 16.7068 13.6258 17.2281 13.9432C17.631 14.2606 17.9627 14.6234 18.2708 15.0088C18.6263 15.3942 18.9343 15.825 19.195 16.2784L22.3705 22.1505H14.9294L11.4222 15.9157C10.972 15.1222 10.5928 14.6007 10.2373 14.3513C9.76339 14.0339 9.19464 13.8752 8.6259 13.8752H8.05716V22.1051H1.49294V22.1278ZM8.05716 10.0663H10.8298C11.4222 10.021 11.991 9.93029 12.5597 9.79426C12.9863 9.72624 13.3654 9.49953 13.6261 9.15945C14.2659 8.34326 14.1711 7.18699 13.3891 6.48416C12.9626 6.14408 12.1331 5.96271 10.9483 5.96271H8.05716V10.0663ZM0 39.4945L6.23245 39.1091C6.37464 40.0839 6.63531 40.8094 7.06187 41.3309C7.7254 42.1471 8.697 42.5779 9.95297 42.5779C10.8772 42.5779 11.6118 42.3738 12.1094 41.943C12.5834 41.5803 12.8678 41.0588 12.8678 40.492C12.8678 39.9479 12.6071 39.4265 12.1568 39.0864C11.6829 38.6783 10.5691 38.2702 8.79179 37.9074C5.92438 37.2953 3.8627 36.4791 2.65412 35.4362C1.44555 34.4613 0.758321 33.033 0.805716 31.514C0.805716 30.4711 1.13748 29.4281 1.75362 28.5666C2.46454 27.5917 3.43614 26.8209 4.59732 26.3901C5.85329 25.8687 7.60691 25.5966 9.81078 25.5966C12.5123 25.5966 14.574 26.0727 15.9958 27.0476C17.4177 28.0225 18.2471 29.5415 18.5078 31.65L12.3464 31.9901C12.1805 31.0832 11.8488 30.4257 11.3037 29.9949C10.7824 29.5642 10.0478 29.3601 9.12355 29.3828C8.36523 29.3828 7.79649 29.5415 7.41733 29.8589C7.03817 30.131 6.82489 30.5391 6.84859 30.9925C6.84859 31.3326 7.03817 31.65 7.32254 31.854C7.63061 32.1261 8.36523 32.3755 9.52641 32.6022C12.3938 33.1917 14.4318 33.7812 15.6878 34.3933C16.9437 35.0054 17.8442 35.7536 18.3893 36.6378C18.958 37.5447 19.2424 38.5876 19.2424 39.6305C19.2424 40.9001 18.8395 42.1471 18.1049 43.2127C17.3229 44.3236 16.2328 45.1851 14.9531 45.7066C13.6024 46.2734 11.8962 46.5681 9.85818 46.5681C6.25615 46.5681 3.76791 45.9106 2.36975 44.573C0.971599 43.2127 0.18958 41.5349 0 39.4945Z" fill="#C0C0C0"/>
<path d="M31.5177 37.9075L37.2525 39.5625C36.9445 40.9455 36.3046 42.2605 35.4278 43.4167C34.6221 44.437 33.5557 45.2305 32.3471 45.752C31.1149 46.2734 29.5508 46.5455 27.655 46.5455C25.3564 46.5455 23.4606 46.2281 22.015 45.5933C20.5458 44.9584 19.2898 43.8248 18.2234 42.2151C17.157 40.6054 16.6357 38.5423 16.6357 36.0257C16.6357 32.6703 17.5599 30.0857 19.432 28.2946C21.3041 26.5035 23.9345 25.5966 27.347 25.5966C30.0248 25.5966 32.1102 26.1181 33.6505 27.1383C35.1672 28.1812 36.3046 29.7683 37.063 31.8994L31.2808 33.1237C31.1386 32.6476 30.9253 32.1715 30.6409 31.7634C30.2855 31.2873 29.8352 30.9245 29.2902 30.6525C28.7451 30.3804 28.129 30.267 27.5129 30.267C26.0199 30.267 24.8824 30.8338 24.1004 31.9901C23.508 32.829 23.1999 34.1666 23.1999 35.9804C23.1999 38.2249 23.5554 39.7666 24.2663 40.6054C24.9772 41.4443 25.9725 41.8524 27.2759 41.8524C28.5318 41.8524 29.4797 41.5123 30.1196 40.8548C30.7594 40.152 31.2334 39.1771 31.5177 37.9075ZM44.9068 25.9367H51.4474V33.033H58.604V25.9367H65.1919V46.2054H58.604V37.9982H51.4474V46.2054H44.9068V25.9367Z" fill="#C0C0C0"/>
<path d="M64.2914 36.071C64.2914 32.7609 65.263 30.1763 67.1825 28.3399C69.102 26.5035 71.8036 25.5739 75.2397 25.5739C78.7706 25.5739 81.4722 26.4808 83.3917 28.2946C85.3112 30.1083 86.2591 32.6476 86.2591 35.9123C86.2591 38.2929 85.8325 40.22 85.0031 41.739C84.1974 43.2354 82.9414 44.4596 81.4011 45.2758C79.8133 46.1147 77.8464 46.5455 75.5004 46.5455C73.1069 46.5455 71.14 46.1827 69.576 45.4572C67.9646 44.6864 66.6375 43.4848 65.7607 42.0111C64.7891 40.424 64.2914 38.4516 64.2914 36.071ZM70.832 36.0937C70.832 38.1342 71.2348 39.6079 72.0168 40.5147C72.7989 41.3989 73.889 41.8524 75.2634 41.8524C76.6616 41.8524 77.7516 41.4216 78.5337 40.5374C79.3157 39.6532 79.6948 38.0888 79.6948 35.8216C79.6948 33.9172 79.292 32.5115 78.4863 31.65C77.6806 30.7658 76.5905 30.335 75.216 30.335C74.0074 30.2897 72.8463 30.7885 72.0405 31.6727C71.2348 32.5569 70.832 34.0306 70.832 36.0937ZM92.9655 36.071C92.9655 32.7609 93.9371 30.1763 95.8566 28.3399C98.3261 28.4547 102.24 27.5566 105.099 25.5059C108.63 25.5059 110.17 26.4808 112.066 28.2946C113.961 30.1083 114.933 32.6476 114.933 35.9123C114.933 38.2929 114.507 40.22 113.677 41.739C112.871 43.2354 111.615 44.4596 110.075 45.2758C108.487 46.1147 106.52 46.5455 104.174 46.5455C101.781 46.5455 99.8141 46.1827 98.25 45.4572C96.6386 44.6864 95.3115 43.4848 94.4347 42.0111C93.4631 40.424 92.9655 38.4516 92.9655 36.071ZM99.506 36.0937C99.506 38.1342 99.9088 39.6079 100.691 40.5147C101.473 41.3989 102.563 41.8524 103.937 41.8524C105.336 41.8524 106.426 41.4216 107.208 40.5374C107.99 39.6532 108.369 38.0888 108.369 35.8216C108.369 33.9172 107.966 32.5115 107.16 31.65C106.355 30.7658 105.264 30.335 103.89 30.335C102.681 30.2897 101.497 30.7885 100.715 31.6727C99.9088 32.5569 99.506 34.0306 99.506 36.0937Z" fill="#C0C0C0"/>
<path d="M114.246 25.9367H120.786V41.2176H131V46.2054H114.222V25.9367H114.246Z" fill="#C0C0C0"/>
<path d="M107.037 24.7669C113.622 20.0194 115.652 11.9717 111.572 6.79174C107.492 1.6118 98.8463 1.26125 92.2614 6.00875C85.6765 10.7562 83.6459 18.804 87.726 23.984C91.8061 29.1639 100.452 29.5144 107.037 24.7669Z" stroke="#C0C0C0" stroke-width="4" stroke-miterlimit="10"/>
<path d="M92.9891 13.8979L95.3588 12.3108L98.2736 16.2784C98.7713 16.9132 99.1504 17.5934 99.4348 18.3416C99.6007 18.9084 99.5533 19.5205 99.3163 20.0646C99.0082 20.7448 98.5106 21.3116 97.847 21.7197C97.065 22.2411 96.4015 22.5359 95.8328 22.6266C95.2877 22.7173 94.719 22.6266 94.1976 22.3998C93.6289 22.1278 93.1312 21.7424 92.7521 21.2436L94.7901 19.4298C94.9559 19.6792 95.1692 19.9059 95.4062 20.0873C95.5721 20.2007 95.7617 20.2687 95.9749 20.2687C96.1408 20.2687 96.3067 20.2007 96.4252 20.11C96.6622 19.974 96.8281 19.7019 96.8044 19.4298C96.7333 19.0444 96.5674 18.659 96.3067 18.3642L92.9891 13.8979ZM100.098 16.4145L102.255 14.7821C102.492 15.0541 102.8 15.2582 103.132 15.3716C103.606 15.5076 104.103 15.4169 104.506 15.1222C104.79 14.9408 105.027 14.6914 105.122 14.374C105.264 13.9659 105.027 13.5125 104.601 13.3764C104.53 13.3538 104.459 13.3311 104.388 13.3311C104.103 13.3084 103.606 13.4218 102.871 13.7165C101.662 14.1926 100.714 14.374 100.004 14.306C99.3163 14.238 98.6765 13.8979 98.2973 13.3311C98.0129 12.9457 97.8707 12.4922 97.847 12.0388C97.847 11.5173 97.9892 10.9959 98.2973 10.5651C98.7476 9.95296 99.2926 9.43151 99.9561 9.02342C100.951 8.36593 101.828 8.04852 102.587 8.04852C103.345 8.04852 104.056 8.3886 104.719 9.09143L102.587 10.7011C102.16 10.1797 101.354 10.0663 100.809 10.4744L100.738 10.5424C100.501 10.6785 100.335 10.8825 100.24 11.1319C100.169 11.3133 100.217 11.5173 100.335 11.676C100.43 11.7894 100.572 11.8801 100.738 11.8801C100.928 11.9028 101.259 11.8121 101.733 11.608C102.918 11.1319 103.819 10.8598 104.435 10.7692C104.956 10.6785 105.501 10.7238 105.999 10.9279C106.449 11.1092 106.828 11.4266 107.089 11.8121C107.421 12.2655 107.61 12.8096 107.634 13.3764C107.658 13.9659 107.492 14.5327 107.16 15.0315C106.734 15.6436 106.189 16.1651 105.549 16.5732C104.245 17.4347 103.179 17.7974 102.326 17.6614C101.402 17.5254 100.643 17.0719 100.098 16.4145Z" fill="#C0C0C0"/>
</g>
<defs>
<clipPath id="clip0_8_31">
<rect width="131" height="46.5455" fill="white"/>
</clipPath>
</defs>
</svg>
