<svg width="95" height="97" viewBox="0 0 95 97" fill="none" xmlns="http://www.w3.org/2000/svg">
<path d="M79.2062 1.1548C88.8398 12.3412 95 29.3961 95 48.5062C95 67.6162 88.8398 84.6924 79.2062 95.8575C77.6773 97.6372 75.4359 97.2982 74.1891 95.116C72.9422 92.9338 73.1797 89.7347 74.7086 87.955C82.7539 78.6331 87.875 64.4383 87.875 48.5062C87.875 32.5741 82.7539 18.3793 74.7086 9.0361C73.1797 7.25645 72.957 4.05732 74.1891 1.87514C75.4211 -0.307052 77.6773 -0.624846 79.2062 1.13362V1.1548ZM70.2258 16.9386C76.6383 24.3962 80.75 35.7732 80.75 48.5062C80.75 61.2391 76.6383 72.6162 70.2258 80.0737C68.6969 81.8534 66.4555 81.5144 65.2086 79.3322C63.9617 77.15 64.1992 73.9509 65.7281 72.1713C70.5523 66.5781 73.625 58.0612 73.625 48.5062C73.625 38.9511 70.5523 30.4343 65.7281 24.8199C64.1992 23.0402 63.9766 19.8411 65.2086 17.6589C66.4406 15.4767 68.6969 15.1589 70.2258 16.9174V16.9386ZM61.2453 32.7224C64.4367 36.4512 66.5 42.1291 66.5 48.5062C66.5 54.8832 64.4367 60.5612 61.2453 64.29C59.7164 66.0696 57.475 65.7306 56.2281 63.5484C54.9812 61.3662 55.2187 58.1671 56.7477 56.3875C58.3508 54.5231 59.375 51.6841 59.375 48.5062C59.375 45.3282 58.3508 42.4893 56.7477 40.6037C55.2187 38.824 54.9961 35.6249 56.2281 33.4427C57.4602 31.2605 59.7164 30.9427 61.2453 32.7012V32.7224ZM44.6945 1.64209C46.4016 2.74377 47.5 5.15901 47.5 7.82848V89.1838C47.5 91.8533 46.4016 94.2686 44.6945 95.3702C42.9875 96.4719 40.9836 96.027 39.5883 94.2474L19.5641 68.845H9.5C4.26016 68.845 0 62.7645 0 55.2858V41.7266C0 34.2478 4.26016 28.1673 9.5 28.1673H19.5641L39.5883 2.76496C40.9836 0.985312 42.9875 0.561586 44.6945 1.64209V1.64209Z" fill="#797979"/>
</svg>
