<svg width="95" height="98" viewBox="0 0 95 98" fill="none" xmlns="http://www.w3.org/2000/svg">
<path d="M49.6649 0.621232C51.5618 1.74711 52.7824 4.21538 52.7824 6.94347V90.0852C52.7824 92.8133 51.5618 95.2816 49.6649 96.4075C47.768 97.5334 45.5413 97.0787 43.9908 95.2599L21.7397 69.2998H10.5565C4.73392 69.2998 0 63.0858 0 55.4428V41.5859C0 33.9429 4.73392 27.7289 10.5565 27.7289H21.7397L43.9908 1.76876C45.5413 -0.0499646 47.768 -0.482995 49.6649 0.621232V0.621232ZM70.1016 29.2445L79.1735 41.1528L88.2455 29.2445C89.796 27.2093 92.3032 27.2093 93.8371 29.2445C95.3711 31.2798 95.3876 34.5708 93.8371 36.5844L84.7652 48.4927L93.8371 60.401C95.3876 62.4363 95.3876 65.7273 93.8371 67.7409C92.2867 69.7545 89.7795 69.7761 88.2455 67.7409L79.1735 55.8326L70.1016 67.7409C68.5511 69.7761 66.0439 69.7761 64.5099 67.7409C62.976 65.7056 62.9595 62.4146 64.5099 60.401L73.5819 48.4927L64.5099 36.5844C62.9595 34.5491 62.9595 31.2581 64.5099 29.2445C66.0604 27.2309 68.5676 27.2093 70.1016 29.2445V29.2445Z" fill="#797979"/>
</svg>
